<svg xmlns="http://www.w3.org/2000/svg" width="28.859" height="28.859" viewBox="0 0 28.859 28.859"><path d="M14.987,25.087h2.886V22.2H14.987ZM16.43,2a14.43,14.43,0,1,0,14.43,14.43A14.435,14.435,0,0,0,16.43,2Zm0,25.973A11.544,11.544,0,1,1,27.973,16.43,11.559,11.559,0,0,1,16.43,27.973Zm0-20.2a5.77,5.77,0,0,0-5.772,5.772h2.886a2.886,2.886,0,1,1,5.772,0c0,2.886-4.329,2.525-4.329,7.215h2.886c0-3.247,4.329-3.607,4.329-7.215A5.77,5.77,0,0,0,16.43,7.772Z" transform="translate(-2 -2)" fill="#fff"/></svg>