<svg xmlns="http://www.w3.org/2000/svg" xmlns:xlink="http://www.w3.org/1999/xlink" width="18.464" height="19.156" viewBox="0 0 18.464 19.156"><defs><clipPath id="a"><rect width="18.464" height="19.156" fill="none"/></clipPath></defs><g clip-path="url(#a)"><path d="M18.464,7.665V4.594A2.116,2.116,0,0,0,16.352,2.48H15.3V4.81a1.1,1.1,0,0,1-1.1,1.1H12.264a1.1,1.1,0,0,1-1.1-1.1V2.48H7.3V4.81A1.106,1.106,0,0,1,6.2,5.913H4.264a1.106,1.106,0,0,1-1.106-1.1V2.48H2.114A2.116,2.116,0,0,0,0,4.594V7.665H0v9.976a2.318,2.318,0,0,0,2.315,2.315H16.149a2.318,2.318,0,0,0,2.315-2.315ZM2.315,18.474a.834.834,0,0,1-.833-.833V7.19h15.5V17.641a.834.834,0,0,1-.833.833Z" transform="translate(0 -0.8)" fill="#628667"/><path d="M7.921,12.724v-.013H5.668v2.252H7.921Z" transform="translate(-1.828 -4.1)" fill="#628667"/><rect width="2.252" height="2.252" transform="translate(8.106 8.611)" fill="#628667"/><path d="M18.262,14.958v.006h2.253V12.711H18.262v2.247Z" transform="translate(-5.891 -4.1)" fill="#628667"/><path d="M7.921,18.739v-.013H5.668v2.253H7.921Z" transform="translate(-1.828 -6.041)" fill="#628667"/><rect width="2.252" height="2.253" transform="translate(8.106 12.685)" fill="#628667"/><path d="M18.262,20.979h2.253V18.726H18.262v2.253Z" transform="translate(-5.891 -6.041)" fill="#628667"/><path d="M6.139,4.333H8.074A.323.323,0,0,0,8.4,4.01V1A1.008,1.008,0,0,0,7.392,0H6.821A1.008,1.008,0,0,0,5.814,1V4.01a.323.323,0,0,0,.325.322" transform="translate(-1.875 0)" fill="#628667"/><path d="M17.949,4.333h1.937a.322.322,0,0,0,.322-.322V1a1.008,1.008,0,0,0-1-1h-.574a1.008,1.008,0,0,0-1,1V4.01a.322.322,0,0,0,.322.322" transform="translate(-5.686 0)" fill="#628667"/></g></svg>