<svg xmlns="http://www.w3.org/2000/svg" xmlns:xlink="http://www.w3.org/1999/xlink" width="30.276" height="29.413" viewBox="0 0 30.276 29.413"><defs><linearGradient id="a" x1="0.093" y1="0.916" x2="1.066" y2="-0.082" gradientUnits="objectBoundingBox"><stop offset="0" stop-color="#a71095"/><stop offset="0.52" stop-color="#7923b6"/><stop offset="1" stop-color="#5134d2"/></linearGradient><linearGradient id="b" x1="-0.005" y1="1.02" x2="0.934" y2="0.053" gradientUnits="objectBoundingBox"><stop offset="0" stop-color="#f6c65a"/><stop offset="0.28" stop-color="#ef5531"/><stop offset="0.52" stop-color="#dc1e51"/><stop offset="0.75" stop-color="#a71095"/><stop offset="1" stop-color="#5134d2"/></linearGradient><linearGradient id="c" x1="-0.484" y1="1.51" x2="1.345" y2="-0.369" xlink:href="#b"/></defs><g transform="translate(-0.003 0.003)"><path d="M1059.677,240.292a1.876,1.876,0,0,0-1.168,2.192,1.942,1.942,0,0,0,2.381,1.369,1.884,1.884,0,0,0,1.358-2.337A1.945,1.945,0,0,0,1059.677,240.292Z" transform="translate(-1036.635 -235.196)" fill="url(#a)"/><path d="M30.274,10.832a17.527,17.527,0,0,0-.649-5.417A7.6,7.6,0,0,0,24.905.69,17.414,17.414,0,0,0,19.246,0q-4.218-.006-8.434.013c-.9.035-1.8.025-2.7.125A9.024,9.024,0,0,0,3.037,2.017,7.687,7.687,0,0,0,.458,6.11a23.771,23.771,0,0,0-.45,4.718c0,2.635-.013,5.27,0,7.906a17.075,17.075,0,0,0,.727,5.442,7.6,7.6,0,0,0,4.687,4.561,14.122,14.122,0,0,0,4.736.641c1.405.055,2.812.022,4.217.029,2.536-.069,5.08.065,7.612-.128a8.872,8.872,0,0,0,5.732-2.327,8.527,8.527,0,0,0,2.448-5.858c.19-3.416.071-6.84.107-10.262Zm-2.857,10.4a7.813,7.813,0,0,1-.523,2.231,4.9,4.9,0,0,1-3.044,2.775,14.647,14.647,0,0,1-4.071.51c-2.418,0-4.835.078-7.252.011A34.735,34.735,0,0,1,7.907,26.6a5.531,5.531,0,0,1-4.044-2.224c-1-1.453-1.021-3.283-1.1-4.978,0-2.111-.03-4.221-.009-6.331.032-1.32-.034-2.642.068-3.96.049-1.716.382-3.607,1.73-4.8C6,2.893,8.135,2.77,10.038,2.7c3.242-.068,6.486-.063,9.73-.045,1.869.1,3.915.062,5.5,1.22a5.284,5.284,0,0,1,2.065,3.591,36.611,36.611,0,0,1,.192,4.939c.046,1.58.035,3.163,0,4.744.017,1.36-.009,2.722-.1,4.08Z" transform="translate(0 0)" fill="url(#b)"/><path d="M369.519,347.636a7.909,7.909,0,0,0-11.012,2.2,7.458,7.458,0,0,0-.963,5.9,7.561,7.561,0,0,0,3.344,4.507,7.892,7.892,0,0,0,5.535,1.064,7.8,7.8,0,0,0,5.4-3.7,7.446,7.446,0,0,0,.823-5.527A7.558,7.558,0,0,0,369.519,347.636Zm-.382,9.117a5.1,5.1,0,0,1-3.622,1.975A5.014,5.014,0,0,1,360.2,355.1a4.827,4.827,0,0,1,.9-4.239,5.145,5.145,0,0,1,3.15-1.833,5.073,5.073,0,0,1,5.609,3.283A4.8,4.8,0,0,1,369.137,356.753Z" transform="translate(-349.943 -339.157)" fill="url(#c)"/></g></svg>