<svg xmlns="http://www.w3.org/2000/svg" width="23.93" height="23.931" viewBox="0 0 23.93 23.931"><path d="M527.607,1187.478a1.46,1.46,0,1,0,1.459,1.46,1.46,1.46,0,0,0-1.459-1.46" transform="translate(-509.369 -1183.302)" fill="#fff"/><path d="M468.68,1168.755H457.086a6.175,6.175,0,0,0-6.168,6.168v11.595a6.174,6.174,0,0,0,6.168,6.168H468.68a6.174,6.174,0,0,0,6.168-6.168v-11.595a6.175,6.175,0,0,0-6.168-6.168M473,1186.518a4.323,4.323,0,0,1-4.318,4.318H457.086a4.323,4.323,0,0,1-4.318-4.318v-11.595a4.323,4.323,0,0,1,4.318-4.318H468.68a4.323,4.323,0,0,1,4.318,4.318Z" transform="translate(-450.918 -1168.755)" fill="#fff"/><path d="M484.656,1196.772a5.721,5.721,0,1,0,5.721,5.721,5.728,5.728,0,0,0-5.721-5.721m0,9.592a3.87,3.87,0,1,1,3.87-3.87,3.874,3.874,0,0,1-3.87,3.87" transform="translate(-472.691 -1190.528)" fill="#fff"/></svg>