<svg xmlns="http://www.w3.org/2000/svg" viewBox="0 0 22.617 22.617">
  <g id="グループ_5307" data-name="グループ 5307" transform="translate(0 0)">
    <path id="パス_6417" data-name="パス 6417" d="M527.525,1187.478a1.378,1.378,0,1,0,1.378,1.378,1.378,1.378,0,0,0-1.378-1.378" transform="translate(-510.288 -1183.531)" fill="#fff"/>
    <path id="パス_6418" data-name="パス 6418" d="M467.706,1168.755H456.747a5.836,5.836,0,0,0-5.829,5.829v10.959a5.836,5.836,0,0,0,5.829,5.829h10.958a5.836,5.836,0,0,0,5.829-5.829v-10.959a5.836,5.836,0,0,0-5.829-5.829m4.081,16.788a4.086,4.086,0,0,1-4.081,4.081H456.747a4.086,4.086,0,0,1-4.081-4.081v-10.959a4.086,4.086,0,0,1,4.081-4.081h10.958a4.086,4.086,0,0,1,4.081,4.081Z" transform="translate(-450.918 -1168.755)" fill="#fff"/>
    <path id="パス_6419" data-name="パス 6419" d="M484.337,1196.772a5.4,5.4,0,1,0,5.4,5.4,5.408,5.408,0,0,0-5.4-5.4m0,9.056a3.654,3.654,0,1,1,3.654-3.654,3.658,3.658,0,0,1-3.654,3.654" transform="translate(-473.029 -1190.866)" fill="#fff"/>
  </g>
</svg>
