<svg id="グループ_12088" data-name="グループ 12088" xmlns="http://www.w3.org/2000/svg" xmlns:xlink="http://www.w3.org/1999/xlink" viewBox="0 0 152.767 119.614">
  <defs>
    <clipPath id="clip-path">
      <rect id="長方形_23413" data-name="長方形 23413" width="152.767" height="119.614" fill="none"/>
    </clipPath>
  </defs>
  <g id="グループ_12087" data-name="グループ 12087" clip-path="url(#clip-path)">
    <path id="パス_8699" data-name="パス 8699" d="M424.279,23.338,412.272,6.152a2.14,2.14,0,0,0-1.325-.871L385.344.043a2.14,2.14,0,0,0-1.907.549l-16.89,16.134a2.139,2.139,0,0,0-.662,1.558l.128,25.93a2.14,2.14,0,0,0,1.159,1.891l24.009,12.378a2.139,2.139,0,0,0,1.8.074l23.706-9.834a2.14,2.14,0,0,0,1.23-1.362l6.657-22.184a2.14,2.14,0,0,0-.3-1.841M408.3,12.862l7.1,10.158a.642.642,0,0,1-.378.993l-13.891,3.309a2.825,2.825,0,0,1-2.132-.34L392.018,22.7a2.826,2.826,0,0,1-1.317-1.993L388.969,9.072a.642.642,0,0,1,.764-.724l16.99,3.475a2.55,2.55,0,0,1,1.58,1.038M372.844,39.51l-.089-18.061a2.55,2.55,0,0,1,.789-1.857l9.433-9.01a.642.642,0,0,1,1.079.37l1.674,11.254a2.827,2.827,0,0,1-.294,1.731l-9.295,17.668a1.028,1.028,0,0,1-1.38.435l-.535-.276a2.551,2.551,0,0,1-1.382-2.254m18.212,10.931-9.9-5.105a1.028,1.028,0,0,1-.438-1.392l8.236-15.655a1.156,1.156,0,0,1,1.627-.447l5.964,3.658a1.821,1.821,0,0,1,.839,1.226l2.571,14.126a1.027,1.027,0,0,1-.617,1.133L393.2,50.531a2.551,2.551,0,0,1-2.146-.089m19.659-7.176-5.024,2.084a.642.642,0,0,1-.878-.478l-2.1-11.522a1.156,1.156,0,0,1,.869-1.331l11.283-2.688a.642.642,0,0,1,.764.809l-3.452,11.5a2.55,2.55,0,0,1-1.466,1.623" transform="translate(-318.891 0)" fill="#fff"/>
    <path id="パス_8700" data-name="パス 8700" d="M920.4,571.78l-3.308-1.207a.9.9,0,0,1-.591-.845V542.9a.9.9,0,0,1,.593-.845l3.307-1.2a.514.514,0,0,1,.689.483V571.3a.514.514,0,0,1-.69.483" transform="translate(-798.792 -471.367)" fill="#fff"/>
    <path id="パス_8701" data-name="パス 8701" d="M477.511,546.451l-10.757-2.2a.9.9,0,0,0-.8.231l-2.46,2.349a.257.257,0,0,1-.434-.186v-8.508a.642.642,0,0,0-.861-.6l-3.135,1.135a.9.9,0,0,0-.593.845v26.824a.9.9,0,0,0,.591.845l3.136,1.144a.642.642,0,0,0,.862-.6v-1.667a.257.257,0,0,1,.375-.228l5.773,2.976a.9.9,0,0,0,.756.031l9.96-4.132a.9.9,0,0,0,.517-.572l2.8-9.32a.9.9,0,0,0-.124-.773l-5.044-7.221a.9.9,0,0,0-.557-.366m-1.175,15.013-6.174,2.561a.9.9,0,0,1-.756-.031l-5.86-3.021a.9.9,0,0,1-.487-.8v-6.5a.9.9,0,0,1,.278-.65l3.98-3.8a.9.9,0,0,1,.8-.231l6.811,1.393a.9.9,0,0,1,.557.366l2.837,4.06a.9.9,0,0,1,.124.773l-1.594,5.312a.9.9,0,0,1-.517.572" transform="translate(-399.585 -468.459)" fill="#fff"/>
    <path id="パス_8702" data-name="パス 8702" d="M701.471,546.451l-10.757-2.2a.9.9,0,0,0-.8.231l-2.46,2.349a.257.257,0,0,1-.434-.186v-8.508a.642.642,0,0,0-.861-.6l-3.135,1.135a.9.9,0,0,0-.593.845v26.824a.9.9,0,0,0,.591.845l3.135,1.144a.642.642,0,0,0,.862-.6v-1.667a.257.257,0,0,1,.375-.228l5.773,2.976a.9.9,0,0,0,.757.031l9.96-4.132a.9.9,0,0,0,.517-.572l2.8-9.32a.9.9,0,0,0-.124-.773l-5.044-7.221a.9.9,0,0,0-.557-.366M700.3,561.464l-6.174,2.561a.9.9,0,0,1-.756-.031l-5.86-3.021a.9.9,0,0,1-.487-.8v-6.5a.9.9,0,0,1,.278-.65l3.98-3.8a.9.9,0,0,1,.8-.231l6.811,1.393a.9.9,0,0,1,.557.366l2.837,4.06a.9.9,0,0,1,.124.773l-1.594,5.312a.9.9,0,0,1-.517.572" transform="translate(-594.78 -468.459)" fill="#fff"/>
    <path id="パス_8703" data-name="パス 8703" d="M17.453,605.439l-5.8,2.405a.9.9,0,0,1-.756-.031l-5.8-2.989a.9.9,0,0,1-.487-.795l-.031-6.219a.9.9,0,0,1,.278-.655l3.986-3.807a.9.9,0,0,1,.8-.231l6.516,1.333a.9.9,0,0,1,.6.433l2.009,3.5a.9.9,0,0,0,.93.439l3.541-.6a.514.514,0,0,0,.361-.76l-3.774-6.637a.9.9,0,0,0-.6-.436L8.274,588.15a.9.9,0,0,0-.8.231L.278,595.253a.9.9,0,0,0-.278.655l.055,11.04a.9.9,0,0,0,.489.8l10.144,5.2a.9.9,0,0,0,.754.03l9.83-4.078a.514.514,0,0,0,.126-.875l-3.036-2.447a.9.9,0,0,0-.909-.13" transform="translate(0 -512.593)" fill="#fff"/>
    <path id="パス_8704" data-name="パス 8704" d="M1014.9,607.293l-3.7-1.909a.514.514,0,0,1,.042-.933l16.188-6.57a.514.514,0,0,0,.254-.73l-3.926-6.921a.9.9,0,0,0-.6-.437l-10.957-2.241a.9.9,0,0,0-.8.231l-7.194,6.872a.9.9,0,0,0-.278.655l.055,11.042a.9.9,0,0,0,.487.795l10.223,5.271a.9.9,0,0,0,.757.031l9.829-4.077a.514.514,0,0,0,.125-.875l-3.036-2.447a.9.9,0,0,0-.909-.13l-5.8,2.405a.9.9,0,0,1-.757-.031m-1.25-14.7,6.516,1.333a.9.9,0,0,1,.6.434l.637,1.11-12.1,4.78a.514.514,0,0,1-.7-.475l-.012-2.489a.9.9,0,0,1,.278-.655l3.986-3.807a.9.9,0,0,1,.8-.231" transform="translate(-874.98 -512.073)" fill="#fff"/>
    <path id="パス_8705" data-name="パス 8705" d="M237.118,614.529l-10.087-5.2a.9.9,0,0,1-.487-.795l-.054-10.894a.9.9,0,0,1,.278-.655l7.1-6.778a.9.9,0,0,1,.8-.231l10.757,2.2a.9.9,0,0,1,.557.366l5.044,7.221a.9.9,0,0,1,.124.773l-2.8,9.32a.9.9,0,0,1-.517.572l-9.96,4.132a.9.9,0,0,1-.757-.031m-5.733-7.869,5.933,3.059a.9.9,0,0,0,.757.031l6.174-2.561a.9.9,0,0,0,.517-.572l1.594-5.312a.9.9,0,0,0-.124-.773l-2.837-4.06a.9.9,0,0,0-.557-.366l-6.811-1.393a.9.9,0,0,0-.8.231l-4.084,3.9a.9.9,0,0,0-.278.655l.031,6.367a.9.9,0,0,0,.487.795" transform="translate(-197.4 -514.185)" fill="#fff"/>
    <path id="パス_8706" data-name="パス 8706" d="M184.723,861.635a3.706,3.706,0,0,1-1.441-1.392,4.067,4.067,0,0,1,0-3.974,3.707,3.707,0,0,1,1.441-1.392,4.425,4.425,0,0,1,4.1-.005,3.72,3.72,0,0,1,1.436,1.392,4.051,4.051,0,0,1,0,3.985,3.717,3.717,0,0,1-1.436,1.392,4.424,4.424,0,0,1-4.1-.006m3.7-.622a2.963,2.963,0,0,0,1.146-1.135,3.375,3.375,0,0,0,0-3.242,2.964,2.964,0,0,0-1.146-1.135,3.491,3.491,0,0,0-3.281,0,2.991,2.991,0,0,0-1.157,1.135,3.337,3.337,0,0,0,0,3.242,2.99,2.99,0,0,0,1.157,1.135,3.49,3.49,0,0,0,3.281,0" transform="translate(-159.289 -744.636)" fill="#fff"/>
    <path id="パス_8707" data-name="パス 8707" d="M257.846,859.88v2.642h-.8V859.88l-3.057-5h.862l2.62,4.29,2.62-4.29h.808Z" transform="translate(-221.37 -745.081)" fill="#fff"/>
    <path id="パス_8708" data-name="パス 8708" d="M318.317,860.481H314.06l-.917,2.042H312.3l3.494-7.642h.8l3.494,7.642h-.852Zm-.295-.655-1.834-4.1-1.834,4.1Z" transform="translate(-272.19 -745.081)" fill="#fff"/>
    <path id="パス_8709" data-name="パス 8709" d="M411.3,874.969a2.874,2.874,0,0,1-1-.508l.349-.611a2.938,2.938,0,0,0,.906.464,3.6,3.6,0,0,0,1.135.18,2.168,2.168,0,0,0,1.163-.246.781.781,0,0,0,.376-.693.624.624,0,0,0-.207-.5,1.38,1.38,0,0,0-.524-.273,7.554,7.554,0,0,0-.841-.18,9.659,9.659,0,0,1-1.124-.268,1.651,1.651,0,0,1-.726-.464,1.29,1.29,0,0,1-.3-.906,1.42,1.42,0,0,1,.6-1.179,2.7,2.7,0,0,1,1.67-.458,4.334,4.334,0,0,1,1.113.147,3.066,3.066,0,0,1,.917.388l-.339.622a2.9,2.9,0,0,0-1.692-.491,1.961,1.961,0,0,0-1.119.262.8.8,0,0,0-.377.688.679.679,0,0,0,.213.524,1.309,1.309,0,0,0,.529.289,8.577,8.577,0,0,0,.874.191,9.989,9.989,0,0,1,1.1.262,1.619,1.619,0,0,1,.709.447,1.232,1.232,0,0,1,.295.873,1.389,1.389,0,0,1-.628,1.2,2.984,2.984,0,0,1-1.741.442,4.406,4.406,0,0,1-1.337-.2" transform="translate(-357.607 -757.675)" fill="#fff"/>
    <path id="パス_8710" data-name="パス 8710" d="M467.775,866.544a1.468,1.468,0,0,1-.54.3,2.183,2.183,0,0,1-.672.1,1.521,1.521,0,0,1-1.681-1.67v-3.472h-1.026v-.655h1.026V859.9h.775v1.255H467.4v.655h-1.747v3.428a1.085,1.085,0,0,0,.257.781.973.973,0,0,0,.737.267,1.426,1.426,0,0,0,.464-.076,1.152,1.152,0,0,0,.388-.218Z" transform="translate(-404.279 -749.452)" fill="#fff"/>
    <path id="パス_8711" data-name="パス 8711" d="M506.51,874.794a2.747,2.747,0,0,1-1.048-1.043,3.162,3.162,0,0,1,0-3.013,2.71,2.71,0,0,1,1.048-1.037,3.2,3.2,0,0,1,2.991,0,2.673,2.673,0,0,1,1.043,1.037,3.2,3.2,0,0,1,0,3.013,2.709,2.709,0,0,1-1.043,1.043,3.159,3.159,0,0,1-2.991,0m2.593-.59a1.941,1.941,0,0,0,.759-.791,2.636,2.636,0,0,0,0-2.336,1.943,1.943,0,0,0-.759-.792,2.3,2.3,0,0,0-2.194,0,1.978,1.978,0,0,0-.764.792,2.59,2.59,0,0,0,0,2.336,1.976,1.976,0,0,0,.764.791,2.3,2.3,0,0,0,2.194,0" transform="translate(-440.208 -757.675)" fill="#fff"/>
    <path id="パス_8712" data-name="パス 8712" d="M571.774,869.958a2.453,2.453,0,0,1,.639,1.829v3.33h-.775v-3.253a1.9,1.9,0,0,0-.448-1.365,1.682,1.682,0,0,0-1.277-.469,1.962,1.962,0,0,0-1.468.551,2.083,2.083,0,0,0-.54,1.523v3.013h-.775v-5.742h.742v1.059a2.156,2.156,0,0,1,.879-.813,2.814,2.814,0,0,1,1.3-.289,2.346,2.346,0,0,1,1.719.628" transform="translate(-494.288 -757.675)" fill="#fff"/>
    <path id="パス_8713" data-name="パス 8713" d="M630,872.485h-4.8a2.052,2.052,0,0,0,.688,1.446,2.283,2.283,0,0,0,1.572.551,2.478,2.478,0,0,0,.983-.191,2.144,2.144,0,0,0,.775-.562l.437.5a2.459,2.459,0,0,1-.955.7,3.231,3.231,0,0,1-1.261.24,3.188,3.188,0,0,1-1.567-.377,2.715,2.715,0,0,1-1.065-1.043,2.97,2.97,0,0,1-.382-1.507,3.076,3.076,0,0,1,.366-1.507,2.649,2.649,0,0,1,1-1.037,2.806,2.806,0,0,1,1.436-.371,2.777,2.777,0,0,1,1.43.371,2.634,2.634,0,0,1,.993,1.032,3.107,3.107,0,0,1,.36,1.512Zm-4.165-1.96a2.079,2.079,0,0,0-.639,1.381h4.072a2.08,2.08,0,0,0-.639-1.381,2.109,2.109,0,0,0-2.795,0" transform="translate(-544.219 -757.675)" fill="#fff"/>
    <path id="パス_8714" data-name="パス 8714" d="M712.847,869.67l-2.555,5.742h-.8l-2.544-5.742h.808l2.151,4.891,2.173-4.891Z" transform="translate(-616.152 -757.971)" fill="#fff"/>
    <path id="パス_8715" data-name="パス 8715" d="M768.655,852.249a.536.536,0,0,1-.164-.393.524.524,0,0,1,.164-.382.549.549,0,0,1,.4-.164.559.559,0,0,1,.4.158.506.506,0,0,1,.164.377.571.571,0,0,1-.971.4m.011,1.419h.775v5.742h-.775Z" transform="translate(-669.787 -741.969)" fill="#fff"/>
    <rect id="長方形_23411" data-name="長方形 23411" width="0.775" height="8.101" transform="translate(102.361 109.341)" fill="#fff"/>
    <rect id="長方形_23412" data-name="長方形 23412" width="0.775" height="8.101" transform="translate(105.844 109.341)" fill="#fff"/>
    <path id="パス_8716" data-name="パス 8716" d="M851.67,869.893a2.173,2.173,0,0,1,.6,1.665v3.559h-.742v-.9a1.777,1.777,0,0,1-.77.7,2.692,2.692,0,0,1-1.206.251,2.362,2.362,0,0,1-1.529-.458,1.577,1.577,0,0,1-.038-2.391,2.59,2.59,0,0,1,1.687-.448H851.5v-.349a1.472,1.472,0,0,0-.415-1.13,1.714,1.714,0,0,0-1.212-.388,3.08,3.08,0,0,0-1.048.18,2.645,2.645,0,0,0-.863.5l-.349-.579a3.094,3.094,0,0,1,1.048-.573,4.079,4.079,0,0,1,1.288-.2,2.432,2.432,0,0,1,1.725.562m-.873,4.367a1.793,1.793,0,0,0,.7-.868v-.939h-1.8q-1.474,0-1.474,1.026a.939.939,0,0,0,.382.792,1.74,1.74,0,0,0,1.07.289,2.043,2.043,0,0,0,1.125-.3" transform="translate(-738.61 -757.676)" fill="#fff"/>
    <path id="パス_8717" data-name="パス 8717" d="M906.986,869.374v5.044a2.924,2.924,0,0,1-.715,2.167,2.958,2.958,0,0,1-2.156.7,4.819,4.819,0,0,1-1.512-.235,3.108,3.108,0,0,1-1.163-.65l.393-.589a2.956,2.956,0,0,0,1.01.579,3.773,3.773,0,0,0,1.25.207,2.206,2.206,0,0,0,1.6-.508,2.137,2.137,0,0,0,.513-1.577v-.732a2.337,2.337,0,0,1-.944.83,2.92,2.92,0,0,1-1.294.284,3.052,3.052,0,0,1-1.468-.355,2.618,2.618,0,0,1-1.037-.993,2.793,2.793,0,0,1-.377-1.446,2.765,2.765,0,0,1,.377-1.441,2.6,2.6,0,0,1,1.032-.983,3.082,3.082,0,0,1,1.474-.349,2.914,2.914,0,0,1,1.321.295,2.381,2.381,0,0,1,.95.852v-1.1Zm-1.812,4.569a1.932,1.932,0,0,0,.781-.748,2.137,2.137,0,0,0,.278-1.092,2.108,2.108,0,0,0-.278-1.086,1.954,1.954,0,0,0-.775-.742,2.521,2.521,0,0,0-2.249-.005,1.905,1.905,0,0,0-.775.743,2.28,2.28,0,0,0,0,2.183,1.94,1.94,0,0,0,.775.748,2.321,2.321,0,0,0,1.119.268,2.353,2.353,0,0,0,1.125-.268" transform="translate(-785.356 -757.675)" fill="#fff"/>
    <path id="パス_8718" data-name="パス 8718" d="M969.23,872.485h-4.8a2.052,2.052,0,0,0,.688,1.446,2.283,2.283,0,0,0,1.572.551,2.478,2.478,0,0,0,.983-.191,2.145,2.145,0,0,0,.775-.562l.437.5a2.459,2.459,0,0,1-.955.7,3.23,3.23,0,0,1-1.261.24,3.188,3.188,0,0,1-1.567-.377,2.716,2.716,0,0,1-1.065-1.043,2.97,2.97,0,0,1-.382-1.507,3.076,3.076,0,0,1,.366-1.507,2.649,2.649,0,0,1,1-1.037,2.806,2.806,0,0,1,1.436-.371,2.777,2.777,0,0,1,1.43.371,2.634,2.634,0,0,1,.993,1.032,3.106,3.106,0,0,1,.36,1.512Zm-4.165-1.96a2.079,2.079,0,0,0-.639,1.381H968.5a2.081,2.081,0,0,0-.639-1.381,2.109,2.109,0,0,0-2.795,0" transform="translate(-839.881 -757.675)" fill="#fff"/>
  </g>
</svg>
