<svg xmlns="http://www.w3.org/2000/svg" xmlns:xlink="http://www.w3.org/1999/xlink" width="29.852" height="30.97" viewBox="0 0 29.852 30.97">
  <defs>
    <clipPath id="z">
      <path d="M0,0H29.852V30.97H0Z" fill="none"/>
    </clipPath>
  </defs>
  <g transform="translate(0 0)" clip-path="z">
    <path d="M29.852,10.863V5.9A3.421,3.421,0,0,0,26.437,2.48H24.742V6.248A1.784,1.784,0,0,1,22.96,8.031H19.828a1.784,1.784,0,0,1-1.783-1.783V2.48H11.81V6.248a1.788,1.788,0,0,1-1.787,1.783H6.894A1.788,1.788,0,0,1,5.107,6.248V2.48H3.417A3.42,3.42,0,0,0,0,5.9v4.965H0V26.991a3.747,3.747,0,0,0,3.742,3.742H26.109a3.747,3.747,0,0,0,3.742-3.742ZM3.742,28.338A1.348,1.348,0,0,1,2.4,26.992l0-16.9H27.455v16.9a1.348,1.348,0,0,1-1.347,1.346Z" transform="translate(0 0.236)" fill="#fff"/>
    <path d="M9.31,12.732v-.021H5.668v3.642H9.31Z" transform="translate(0.54 1.21)" fill="#fff"/>
    <path d="M0,0H3.642V3.642H0Z" transform="translate(13.105 13.921)" fill="#fff"/>
    <path d="M18.262,16.344v.01H21.9V12.711H18.262v3.633Z" transform="translate(1.739 1.21)" fill="#fff"/>
    <path d="M9.31,18.747v-.021H5.668v3.643H9.31Z" transform="translate(0.54 1.783)" fill="#fff"/>
    <path d="M0,0H3.642V3.643H0Z" transform="translate(13.105 20.509)" fill="#fff"/>
    <path d="M18.262,22.369H21.9V18.726H18.262v3.643Z" transform="translate(1.739 1.783)" fill="#fff"/>
    <path d="M6.34,7.005H9.468a.522.522,0,0,0,.526-.521V1.623A1.63,1.63,0,0,0,8.366,0H7.442A1.63,1.63,0,0,0,5.814,1.623V6.484a.522.522,0,0,0,.526.521" transform="translate(0.554 0)" fill="#fff"/>
    <path d="M18.148,7.005h3.132a.521.521,0,0,0,.521-.521V1.623A1.629,1.629,0,0,0,20.179,0H19.25a1.629,1.629,0,0,0-1.623,1.623V6.484a.521.521,0,0,0,.521.521" transform="translate(1.679 0)" fill="#fff"/>
  </g>
</svg>