<svg xmlns="http://www.w3.org/2000/svg" xmlns:xlink="http://www.w3.org/1999/xlink" width="13.93" height="99.813" viewBox="0 0 13.93 99.813">
  <defs>
    <clipPath id="clip-path">
      <rect id="長方形_5104" data-name="長方形 5104" width="13.93" height="99.813" fill="#222"/>
    </clipPath>
  </defs>
  <g id="グループ_11993" data-name="グループ 11993" clip-path="url(#clip-path)">
    <path id="パス_8382" data-name="パス 8382" d="M5.433,41.268C2.585,40.785.685,38.275.685,34.459c0-4.247,2.347-6.791,5.733-6.791s5.752,2.544,5.752,6.791c0,3.708-1.81,6.182-4.515,6.755a3.377,3.377,0,0,0,3.135,1.613,4.789,4.789,0,0,0,1.4-.2l.394,1.559a5.232,5.232,0,0,1-2.025.34,5.322,5.322,0,0,1-5.124-3.261m4.605-6.809c0-3.1-1.434-4.981-3.62-4.981s-3.6,1.882-3.6,4.981c0,3.189,1.415,5.178,3.6,5.178s3.62-1.989,3.62-5.178" transform="translate(0.191 7.724)" fill="#222"/>
    <path id="パス_8383" data-name="パス 8383" d="M1.973,0H6.059c2.705,0,4.659.879,4.659,3.261a2.935,2.935,0,0,1-1.882,2.85V6.2a3.028,3.028,0,0,1,2.6,3.137c0,2.615-2.132,3.869-5.053,3.869H1.973ZM5.826,5.52c2.007,0,2.849-.753,2.849-1.989,0-1.38-.931-1.9-2.795-1.9H4.052V5.52Zm.322,6.056c2.061,0,3.243-.734,3.243-2.347,0-1.488-1.146-2.15-3.243-2.15h-2.1v4.5Z" transform="translate(0.551 0)" fill="#222"/>
    <path id="パス_8384" data-name="パス 8384" d="M1.973,14H6.059c2.705,0,4.659.879,4.659,3.261a2.935,2.935,0,0,1-1.882,2.85v.09a3.028,3.028,0,0,1,2.6,3.137c0,2.615-2.132,3.869-5.053,3.869H1.973Zm3.853,5.52c2.007,0,2.849-.753,2.849-1.989,0-1.38-.931-1.9-2.795-1.9H4.052V19.52Zm.322,6.056c2.061,0,3.243-.734,3.243-2.347,0-1.488-1.146-2.15-3.243-2.15h-2.1v4.5Z" transform="translate(0.551 3.909)" fill="#222"/>
    <path id="パス_8385" data-name="パス 8385" d="M13.133,51.818A8.724,8.724,0,0,1,11,55.424a8.541,8.541,0,0,0,2.932,1.319,4.208,4.208,0,0,0-.844,1.105,8.519,8.519,0,0,1-3.053-1.581A10.575,10.575,0,0,1,7.2,57.8a4.465,4.465,0,0,0-.7-1.044v1.09H5.123V56.482c-1.81.2-3.62.4-5.017.537L0,55.776c.413-.029.888-.077,1.394-.123V50.73H.138V49.563h13.44V50.73H6.49v5.921a8.855,8.855,0,0,0,2.578-1.288,9.353,9.353,0,0,1-1.55-2.5l.828-.23H6.965V51.527h5.049l.244-.046Zm-1.274-2.975H1.948V44.256h9.911ZM2.715,51.588H5.124V50.73H2.715Zm0,1.919H5.124V52.6H2.715ZM5.123,55.3v-.767H2.715v1Zm5.31-10.08H3.313V46.1h7.12Zm0,1.779H3.313v.89h7.12ZM8.715,52.632A6.725,6.725,0,0,0,10,54.565a7.22,7.22,0,0,0,1.4-1.933Z" transform="translate(0 12.355)" fill="#222"/>
    <path id="パス_8386" data-name="パス 8386" d="M13.431,57.252V58.5H.192V57.252H6.006v-1.38H7.464v1.38Zm-.521,11.107c0,.721-.154,1.121-.675,1.351a7.647,7.647,0,0,1-2.531.23,5.126,5.126,0,0,0-.445-1.319h-4.1v.736H3.919v-4.05h5.8v3.314a12.854,12.854,0,0,0,1.442-.017c.246,0,.322-.06.322-.26V64.464H2.232v5.507H.837v-6.7H12.911Zm-1.964-5.921H2.693V59.232h8.254ZM9.5,60.213H4.073v1.242H9.5ZM8.446,66.32H5.163v1.3H8.446Z" transform="translate(0.054 15.598)" fill="#222"/>
    <path id="パス_8387" data-name="パス 8387" d="M4.474,79.391a1.151,1.151,0,1,1,1.151,1.167,1.126,1.126,0,0,1-1.151-1.167M4.643,71,4.6,68.975H6.652L6.606,71l-.353,5.645H5Z" transform="translate(1.249 19.256)" fill="#222"/>
  </g>
</svg>
